<?xml version="1.0" encoding="UTF-8"?><svg id="Layer_2" xmlns="http://www.w3.org/2000/svg" viewBox="0 0 142.53 141.53"><defs><style>.cls-1{fill:#ff8360;}.cls-2{fill:#5b3df5;}</style></defs><g id="Layer_1-2"><path class="cls-2" d="M42.52,35.97c-14.56,11.79-19.65,30.6-13.5,47.95,5.8,16.36,21.4,28.23,40.1,28.29l.1,26.48c-32.57.08-60.4-22.86-67.46-53.75C-5.58,52.76,10.4,20.03,40.65,6.23,62.49-3.73,87.79-1.72,108.12,12.07c18.23,12.36,30.58,34.02,30.1,57.31h-26.26c-.19-16.46-9.24-30.88-22.93-37.95-15.26-7.88-33.14-6.29-46.51,4.54Z"/><path class="cls-1" d="M126.21,100.8c10.82,2.09,17.55,12.5,16.14,22.85-1.41,10.3-10.55,18.19-21.07,17.87-10.38-.32-19.07-8.53-19.9-19.1-.81-10.28,6.33-20.2,17.03-21.77,2.34-.34,5.17-.36,7.81.15Z"/></g></svg>