<?xml version="1.0" encoding="UTF-8"?><svg id="Layer_2" xmlns="http://www.w3.org/2000/svg" viewBox="0 0 406.57 121.15"><defs><style>.cls-1{fill:#2b1e4a;}.cls-2{fill:#ff8360;}</style></defs><g id="Layer_1-2"><path class="cls-1" d="M93.18.69h5.37c3.12,0,5.93.3,8.43.89,2.5.6,4.61,1.5,6.33,2.72,1.72,1.22,3.04,2.75,3.96,4.61.92,1.86,1.38,4.05,1.38,6.57v1.03h-8.26v-.07c0-2.84-.98-4.81-2.92-5.88-1.95-1.08-4.78-1.62-8.5-1.62h-6.4c-2.34,0-4.35.38-6.02,1.14-1.68.76-3.04,1.82-4.09,3.2-1.06,1.38-1.82,3.05-2.31,5.02-.48,1.97-.72,4.17-.72,6.61s.24,4.47.72,6.4,1.25,3.58,2.31,4.95c1.05,1.38,2.42,2.44,4.09,3.2,1.67.76,3.68,1.14,6.02,1.14h6.4c3.76,0,6.61-.53,8.53-1.58,1.93-1.05,2.89-3.03,2.89-5.92v-.07h8.26v1.03c0,5-1.78,8.72-5.33,11.15-3.56,2.43-8.48,3.65-14.76,3.65h-5.37c-3.58,0-6.73-.57-9.46-1.72-2.73-1.15-5.02-2.76-6.88-4.85-1.86-2.09-3.27-4.6-4.23-7.53-.96-2.94-1.45-6.19-1.45-9.77v-.41c0-3.58.48-6.83,1.45-9.77.96-2.94,2.37-5.45,4.23-7.53,1.86-2.09,4.15-3.7,6.88-4.85,2.73-1.15,5.88-1.72,9.46-1.72Z"/><path class="cls-1" d="M123.94,24.77c0-3.44.65-6.66,1.96-9.67,1.31-3,3.07-5.62,5.3-7.84,2.22-2.22,4.84-3.99,7.84-5.3,3-1.31,6.23-1.96,9.67-1.96s6.66.65,9.67,1.96c3,1.31,5.62,3.07,7.84,5.3,2.22,2.23,3.99,4.84,5.3,7.84,1.31,3,1.96,6.23,1.96,9.67s-.65,6.66-1.96,9.67c-1.31,3-3.07,5.62-5.3,7.84-2.23,2.23-4.84,3.99-7.84,5.3-3,1.31-6.23,1.96-9.67,1.96s-6.66-.65-9.67-1.96c-3.01-1.31-5.62-3.07-7.84-5.3-2.23-2.22-3.99-4.84-5.3-7.84-1.31-3-1.96-6.23-1.96-9.67ZM132.2,24.77c0,2.29.44,4.44,1.31,6.43.87,2,2.05,3.74,3.54,5.23,1.49,1.49,3.23,2.67,5.23,3.54,2,.87,4.14,1.31,6.43,1.31s4.44-.44,6.43-1.31c1.99-.87,3.74-2.05,5.23-3.54,1.49-1.49,2.67-3.23,3.54-5.23.87-2,1.31-4.14,1.31-6.43s-.44-4.44-1.31-6.43c-.87-2-2.05-3.74-3.54-5.23-1.49-1.49-3.23-2.67-5.23-3.54-2-.87-4.14-1.31-6.43-1.31s-4.44.44-6.43,1.31c-2,.87-3.74,2.05-5.23,3.54s-2.67,3.23-3.54,5.23c-.87,2-1.31,4.14-1.31,6.43Z"/><path class="cls-1" d="M180.64,48.85V6.19c0-1.65.5-2.98,1.51-3.99,1.01-1.01,2.34-1.51,3.99-1.51h23.39c2.57,0,4.91.41,7.02,1.24,2.11.83,3.92,2,5.44,3.51s2.68,3.33,3.51,5.44c.83,2.11,1.24,4.45,1.24,7.02v30.96h-8.26v-30.9c0-2.89-.88-5.23-2.65-7.02-1.77-1.79-4.12-2.68-7.05-2.68h-19.89v40.6h-8.26Z"/><path class="cls-1" d="M235.68,43.35V6.19c0-1.65.5-2.98,1.51-3.99,1.01-1.01,2.34-1.51,3.99-1.51h35.78v7.57h-33.03v12.73h26.15v7.57h-26.15v12.73h33.03v7.57h-35.78c-1.65,0-2.98-.5-3.99-1.51-1.01-1.01-1.51-2.34-1.51-3.99Z"/><path class="cls-1" d="M302.22.69h62.62v8.26h-18.92v39.91h-8.26V8.95h-36.06c-2.34,0-4.35.38-6.02,1.14-1.67.76-3.04,1.82-4.09,3.2-1.06,1.38-1.82,3.05-2.3,5.02-.48,1.97-.72,4.17-.72,6.61s.24,4.47.72,6.4c.48,1.93,1.25,3.58,2.3,4.95,1.05,1.38,2.42,2.44,4.09,3.2,1.67.76,3.68,1.14,6.02,1.14h6.4c3.76,0,6.61-.53,8.53-1.58,1.93-1.05,2.89-3.03,2.89-5.92v-.07h8.26v1.03c0,5-1.78,8.72-5.33,11.15-3.56,2.43-8.48,3.65-14.76,3.65h-5.37c-3.58,0-6.73-.57-9.46-1.72-2.73-1.15-5.02-2.76-6.88-4.85-1.86-2.09-3.27-4.6-4.23-7.53-.96-2.94-1.45-6.19-1.45-9.77v-.41c0-3.58.48-6.83,1.45-9.77.96-2.94,2.37-5.45,4.23-7.53,1.86-2.09,4.15-3.7,6.88-4.85,2.73-1.15,5.88-1.72,9.46-1.72Z"/><path class="cls-1" d="M377.36,4.47c.5-1.15,1.26-2.06,2.27-2.75,1.01-.69,2.16-1.03,3.44-1.03s2.35.34,3.34,1.03c.99.69,1.73,1.61,2.24,2.75l17.34,38.46c.78,1.74.78,3.17,0,4.27-.78,1.1-2.13,1.65-4.06,1.65h-37.85c-1.93,0-3.28-.55-4.06-1.65s-.78-2.52,0-4.27l17.34-38.46ZM395.87,40.53l-12.87-28.49-12.87,28.49h25.74Z"/><path class="cls-1" d="M76.84,120.46v-42.66c0-1.65.5-2.98,1.51-3.99,1.01-1.01,2.34-1.51,3.99-1.51h23.4c2.57,0,4.91.41,7.02,1.24,2.11.83,3.92,2,5.44,3.51s2.68,3.33,3.51,5.44c.83,2.11,1.24,4.45,1.24,7.02v30.96h-8.26v-30.9c0-2.89-.88-5.23-2.65-7.02s-4.12-2.68-7.05-2.68h-19.89v40.6h-8.26Z"/><path class="cls-1" d="M129.62,96.38c0-3.44.65-6.66,1.96-9.67,1.31-3,3.07-5.62,5.3-7.84,2.22-2.22,4.84-3.99,7.84-5.3,3-1.31,6.23-1.96,9.67-1.96s6.66.65,9.67,1.96c3,1.31,5.62,3.07,7.84,5.3,2.22,2.23,3.99,4.84,5.3,7.84,1.31,3,1.96,6.23,1.96,9.67s-.65,6.66-1.96,9.67c-1.31,3-3.07,5.62-5.3,7.84-2.22,2.23-4.84,3.99-7.84,5.3-3,1.31-6.23,1.96-9.67,1.96s-6.66-.65-9.67-1.96c-3-1.31-5.62-3.07-7.84-5.3-2.23-2.22-3.99-4.84-5.3-7.84-1.31-3-1.96-6.23-1.96-9.67ZM137.88,96.38c0,2.29.44,4.44,1.31,6.43.87,2,2.05,3.74,3.54,5.23,1.49,1.49,3.23,2.67,5.23,3.54,2,.87,4.14,1.31,6.43,1.31s4.44-.44,6.43-1.31c2-.87,3.74-2.05,5.23-3.54,1.49-1.49,2.67-3.23,3.54-5.23.87-2,1.31-4.14,1.31-6.43s-.44-4.44-1.31-6.43c-.87-2-2.05-3.74-3.54-5.23-1.49-1.49-3.23-2.67-5.23-3.54-2-.87-4.14-1.31-6.43-1.31s-4.44.44-6.43,1.31c-2,.87-3.74,2.05-5.23,3.54s-2.67,3.23-3.54,5.23-1.31,4.14-1.31,6.43Z"/><path class="cls-1" d="M186.32,77.8c0-1.65.5-2.98,1.51-3.99,1.01-1.01,2.34-1.51,3.99-1.51h25.46c2.61,0,4.98.33,7.09,1,2.11.67,3.91,1.61,5.4,2.82,1.49,1.22,2.65,2.65,3.47,4.3s1.24,3.46,1.24,5.44c0,2.75-.84,5.15-2.51,7.19-1.67,2.04-4.23,3.38-7.67,4.03,2.38.55,4.25,1.37,5.61,2.44,1.35,1.08,2.38,2.26,3.06,3.54.69,1.28,1.11,2.56,1.27,3.82.16,1.26.24,2.33.24,3.2v10.39h-8.26v-10.32c0-6.65-4.38-9.98-13.14-9.98h-18.51v20.3h-8.26v-42.66ZM194.57,92.59h21.95c2.89,0,5.23-.55,7.02-1.65s2.68-2.61,2.68-4.54-.88-3.5-2.65-4.71c-1.77-1.21-4.12-1.82-7.05-1.82h-21.95v12.73Z"/><path class="cls-1" d="M238.4,72.29h46.1v7.57h-18.92v40.6h-8.26v-40.6h-18.92v-7.57Z"/><path class="cls-1" d="M289.81,114.96v-37.16c0-1.65.5-2.98,1.51-3.99,1.01-1.01,2.34-1.51,3.99-1.51h35.78v7.57h-33.03v12.73h26.15v7.57h-26.15v12.73h33.03v7.57h-35.78c-1.65,0-2.98-.5-3.99-1.51-1.01-1.01-1.51-2.34-1.51-3.99Z"/><path class="cls-2" d="M24.9,79.25c10.82,2.09,17.55,12.5,16.14,22.85-1.41,10.3-10.55,18.19-21.07,17.87-10.38-.32-19.07-8.53-19.9-19.1-.81-10.28,6.33-20.2,17.03-21.77,2.34-.34,5.17-.36,7.81.15Z"/></g></svg>