<svg xmlns="http://www.w3.org/2000/svg" id="Layer_1" viewBox="0 0 1144.59 219.25"><defs><style>.cls-1{fill:#f57a2e;}.cls-2{fill:#fab536;}.cls-3{fill:#00ab8c;}.cls-4{fill:#8fb0bf;}.cls-5{fill:#b2de69;}.cls-6{fill:#d14d96;}.cls-7{fill:#244582;}.cls-8{fill:#0d91ab;}.cls-9{fill:#1a66b0;}.cls-10{fill:#5c879c;}.cls-11{fill:#78246b;}.cls-12{fill:#4f544d;}</style></defs><rect class="cls-12" x="318.26" width="6.09" height="219.25"/><path class="cls-7" d="M247.24,77.52h-18.73v23.8h18.73c6.09,0,10.93-5.64,10.93-12.06s-4.84-11.75-10.93-11.75m39.02,11.75c0,19.26-15.45,34.77-34.5,34.77h-23.26v40.4h-26.85V54.81h50.11c19.04,0,34.5,15.5,34.5,34.45"/><polygon class="cls-7" points="158.59 54.81 158.59 99.44 121.12 99.44 121.12 54.81 94.28 54.81 94.28 164.44 121.12 164.44 121.12 123.56 158.59 123.56 158.59 164.44 185.43 164.44 185.43 54.81 158.59 54.81"/><path class="cls-7" d="M42.3,77.52h-15.61v22.4h15.61c7.02,0,10.61-5.33,10.61-11.28s-3.59-11.12-10.61-11.12m2.5,42.44H26.69v21.77h18.11c7.02,0,10.77-4.86,10.77-10.8s-4.68-10.96-10.77-10.96m38.87,14.57c0,18.17-15.92,29.91-33.4,29.91H0V54.81H48.54c17.79,0,32.62,13.16,32.62,29.28,0,12.84-5.93,19.73-14.2,24.9,9.52,4.23,16.7,10.18,16.7,25.53"/><polygon class="cls-11" points="367.28 54.81 436.11 54.81 436.11 77.99 394.12 77.99 394.12 100.85 426.43 100.85 426.43 123.41 394.12 123.41 394.12 164.44 367.28 164.44 367.28 54.81"/><g><path class="cls-4" d="M667.28,82.06c17.48,0,27.31,11.43,27.31,30.85v51.52h-25.29v-48.08c0-9.39-3.75-13.94-12.02-13.94-8.9,0-14.52,5.79-14.52,15.35v46.67h-25.29V84.1h24.82v12.53c3.43-9.09,12.49-14.57,24.97-14.57"/><path class="cls-10" d="M1117.28,82.06c17.33,0,27.31,11.28,27.31,30.85v51.52h-25.29v-48.08c0-9.39-3.75-13.94-12.02-13.94-8.9,0-14.52,5.79-14.52,15.35v46.67h-25.29V84.1h24.82v12.53c3.43-9.09,12.49-14.57,24.97-14.57"/><path class="cls-1" d="M554.89,166.47c-16.86,0-26.85-11.12-26.85-30.85v-51.52h25.29v48.08c0,9.39,3.59,13.94,11.55,13.94,8.58,0,14.05-5.8,14.05-15.35v-46.67h25.29v80.34h-24.82v-12.53c-3.59,9.24-12.33,14.57-24.51,14.57"/><path class="cls-9" d="M929.04,163.97c-4.06,1.41-8.27,2.04-13.27,2.04-17.79,0-27-8.93-27-25.21v-37.74h-11.08v-18.95h11.08v-19.89h25.29v19.89h14.36v18.95h-14.36v34.92c0,5.32,2.81,8.3,7.8,8.3,2.81,0,5-.32,7.18-1.25v18.95Z"/></g><rect class="cls-3" x="939.18" y="84.1" width="25.29" height="80.34"/><g><path class="cls-5" d="M476.54,101.8c-9.83,0-15.3,6.42-15.3,22.55s5.46,22.39,15.3,22.39,15.3-6.26,15.3-22.39-5.46-22.55-15.3-22.55m0,64.68c-25.91,0-41.05-15.5-41.05-42.13s15.14-42.28,41.05-42.28,41.05,15.5,41.05,42.28-15.14,42.13-41.05,42.13"/><path class="cls-6" d="M1015.98,101.8c-9.83,0-15.3,6.42-15.3,22.55s5.46,22.39,15.3,22.39,15.3-6.26,15.3-22.39-5.46-22.55-15.3-22.55m0,64.68c-25.91,0-41.05-15.5-41.05-42.13s15.14-42.28,41.05-42.28,41.05,15.5,41.05,42.28-15.14,42.13-41.05,42.13"/><path class="cls-2" d="M761.4,124.35c0-15.03-5-22.55-15.14-22.55s-15.45,7.83-15.45,22.71,5.31,22.24,15.14,22.24,15.45-7.67,15.45-22.39m-.31-76.42h25.29v116.51h-24.97v-11.75c-4.06,8.77-12.18,13.78-22.95,13.78-20.45,0-33.4-16.13-33.4-41.66s13.27-42.75,33.71-42.75c10.46,0,18.42,4.23,22.32,11.59V47.92Z"/><path class="cls-3" d="M951.83,74.23c-9.05,0-14.52-5.32-14.52-13.78s5.46-13.94,14.52-13.94,14.52,5.32,14.52,13.94-5.46,13.78-14.52,13.78"/><path class="cls-8" d="M848.03,136.09v-6.42h-7.8c-11.86,0-18.58,2.51-18.58,10.65,0,5.64,3.28,9.24,10.77,9.24,9.52,0,15.61-5.48,15.61-13.47m-23.41,30.38c-17.48,0-27.78-9.08-27.78-24.27,0-17.23,14.05-25.84,42.14-25.84h9.05v-2.97c0-8.93-2.65-13.94-12.17-13.94-8.27,0-11.71,4.07-12.64,10.49h-23.1c1.41-19.42,16.7-27.88,37.31-27.88s35.12,7.99,35.12,30.07v52.31h-24.04v-9.87c-4.37,7.52-12.64,11.9-23.88,11.9"/></g></svg>